<?xml version="1.0" encoding="UTF-8" standalone="no"?>
<!-- Created with Inkscape (http://www.inkscape.org/) -->

<svg
   width="9.9917526mm"
   height="6.768631mm"
   viewBox="0 0 9.9917526 6.768631"
   version="1.1"
   id="svg5"
   xml:space="preserve"
   xmlns:inkscape="http://www.inkscape.org/namespaces/inkscape"
   xmlns:sodipodi="http://sodipodi.sourceforge.net/DTD/sodipodi-0.dtd"
   xmlns="http://www.w3.org/2000/svg"
   xmlns:svg="http://www.w3.org/2000/svg"><sodipodi:namedview
     id="namedview7"
     pagecolor="#ffffff"
     bordercolor="#000000"
     borderopacity="0.25"
     inkscape:showpageshadow="2"
     inkscape:pageopacity="0.0"
     inkscape:pagecheckerboard="0"
     inkscape:deskcolor="#d1d1d1"
     inkscape:document-units="mm"
     showgrid="false" /><defs
     id="defs2" /><g
     inkscape:label="Vrstva 1"
     inkscape:groupmode="layer"
     id="layer1"
     transform="translate(-94.696787,-137.04849)"><path
       style="fill:#000000;stroke-width:0.264583"
       d="m 99.348302,143.11719 c -0.0663,-0.56916 -0.25939,-0.75383 -0.93027,-0.8899 -1.36326,-0.2765 -3.81199,-1.34962 -3.71865,-1.62964 0.0472,-0.14158 0.49836,-0.4113 1.00259,-0.59938 0.50423,-0.18808 1.54313,-0.5923 2.30868,-0.89826 0.76554,-0.30596 1.74781,-0.5563 2.182808,-0.5563 0.52116,0 0.79091,-0.13328 0.79091,-0.39077 0,-0.57456 1.19978,-1.27147 1.83941,-1.06846 0.29832,0.0947 0.66553,0.40222 0.81602,0.6834 0.15048,0.28119 0.44801,0.51125 0.66117,0.51125 0.21316,0 0.38757,0.11906 0.38757,0.26458 0,0.14552 -0.22355,0.26459 -0.49677,0.26459 -0.64951,0 -1.02281,0.47644 -1.13346,1.44666 -0.10211,0.89523 -1.48457,1.99292 -2.50994,1.99292 -0.51509,0 -0.622328,0.13678 -0.622328,0.79375 0,0.98987 -0.46408,1.05056 -0.57774,0.0756 z m 2.165238,-1.86191 c 0.7687,-0.38401 0.92604,-0.6063 0.92604,-1.30831 0,-0.46514 0.14883,-0.99497 0.33073,-1.1774 0.48134,-0.48273 0.40471,-1.01961 -0.14552,-1.01961 -0.71688,0 -1.11125,0.53522 -1.11125,1.50813 0,1.77044 -1.899858,2.47135 -4.150158,1.53111 -0.527,-0.22019 -1.01927,-0.33926 -1.09394,-0.26458 -0.21156,0.21156 0.0931,0.419 1.18952,0.81001 1.40034,0.49939 2.957058,0.46892 4.054578,-0.0793 z"
       id="path440"
       inkscape:export-filename="bird-ico.svg"
       inkscape:export-xdpi="96"
       inkscape:export-ydpi="96" /></g></svg>
